<svg width="406" height="76" viewBox="0 0 406 76" fill="none" xmlns="http://www.w3.org/2000/svg">
<rect width="406" height="76" fill="#2F2F2F"/>
<path d="M16.1364 28.7841V24.7273H35.25V28.7841H28.125V48H23.2614V28.7841H16.1364ZM36.4943 48V30.5455H41.1875V33.5909H41.3693C41.6875 32.5076 42.2216 31.6894 42.9716 31.1364C43.7216 30.5758 44.5852 30.2955 45.5625 30.2955C45.8049 30.2955 46.0663 30.3106 46.3466 30.3409C46.6269 30.3712 46.8731 30.4129 47.0852 30.4659V34.7614C46.858 34.6932 46.5436 34.6326 46.142 34.5795C45.7405 34.5265 45.3731 34.5 45.0398 34.5C44.3277 34.5 43.6913 34.6553 43.1307 34.9659C42.5777 35.2689 42.1383 35.6932 41.8125 36.2386C41.4943 36.7841 41.3352 37.4129 41.3352 38.125V48H36.4943ZM60.7812 40.5682V30.5455H65.6222V48H60.9744V44.8295H60.7926C60.3987 45.8523 59.7434 46.6742 58.8267 47.2955C57.9176 47.9167 56.8078 48.2273 55.4972 48.2273C54.3305 48.2273 53.304 47.9621 52.4176 47.4318C51.5313 46.9015 50.8381 46.1477 50.3381 45.1705C49.8456 44.1932 49.5956 43.0227 49.5881 41.6591V30.5455H54.429V40.7955C54.4366 41.8258 54.7131 42.6402 55.2585 43.2386C55.804 43.8371 56.535 44.1364 57.4517 44.1364C58.035 44.1364 58.5805 44.0038 59.0881 43.7386C59.5956 43.4659 60.0047 43.0644 60.3153 42.5341C60.6335 42.0038 60.7888 41.3485 60.7812 40.5682ZM84.017 35.5227L79.5852 35.7955C79.5095 35.4167 79.3466 35.0758 79.0966 34.7727C78.8466 34.4621 78.517 34.2159 78.108 34.0341C77.7064 33.8447 77.2254 33.75 76.6648 33.75C75.9148 33.75 75.2822 33.9091 74.767 34.2273C74.2519 34.5379 73.9943 34.9545 73.9943 35.4773C73.9943 35.8939 74.161 36.2462 74.4943 36.5341C74.8277 36.822 75.3996 37.053 76.2102 37.2273L79.3693 37.8636C81.0663 38.2121 82.3314 38.7727 83.1648 39.5455C83.9981 40.3182 84.4148 41.3333 84.4148 42.5909C84.4148 43.7348 84.0777 44.7386 83.4034 45.6023C82.7367 46.4659 81.8201 47.1402 80.6534 47.625C79.4943 48.1023 78.1572 48.3409 76.642 48.3409C74.3314 48.3409 72.4905 47.8598 71.1193 46.8977C69.7557 45.928 68.9564 44.6098 68.7216 42.9432L73.483 42.6932C73.6269 43.3977 73.9754 43.9356 74.5284 44.3068C75.0814 44.6705 75.7898 44.8523 76.6534 44.8523C77.5019 44.8523 78.1837 44.6894 78.6989 44.3636C79.2216 44.0303 79.4867 43.6023 79.4943 43.0795C79.4867 42.6402 79.3011 42.2803 78.9375 42C78.5739 41.7121 78.0133 41.4924 77.2557 41.3409L74.233 40.7386C72.5284 40.3977 71.2595 39.8068 70.4261 38.9659C69.6004 38.125 69.1875 37.053 69.1875 35.75C69.1875 34.6288 69.4905 33.6629 70.0966 32.8523C70.7102 32.0417 71.5701 31.4167 72.6761 30.9773C73.7898 30.5379 75.0928 30.3182 76.5852 30.3182C78.7898 30.3182 80.5246 30.7841 81.7898 31.7159C83.0625 32.6477 83.8049 33.9167 84.017 35.5227ZM96.7472 30.5455V34.1818H86.2358V30.5455H96.7472ZM88.6222 26.3636H93.4631V42.6364C93.4631 43.0833 93.5313 43.4318 93.6676 43.6818C93.804 43.9242 93.9934 44.0947 94.2358 44.1932C94.4858 44.2917 94.7737 44.3409 95.0994 44.3409C95.3267 44.3409 95.554 44.322 95.7812 44.2841C96.0085 44.2386 96.1828 44.2045 96.304 44.1818L97.0653 47.7841C96.8229 47.8598 96.482 47.947 96.0426 48.0455C95.6032 48.1515 95.0691 48.2159 94.4403 48.2386C93.2737 48.2841 92.2509 48.1288 91.3722 47.7727C90.5009 47.4167 89.8229 46.8636 89.3381 46.1136C88.8532 45.3636 88.6146 44.4167 88.6222 43.2727V26.3636Z" fill="#DE4D4D"/>
<path d="M120.557 32.875H115.58C115.489 32.2311 115.303 31.6591 115.023 31.1591C114.742 30.6515 114.383 30.2197 113.943 29.8636C113.504 29.5076 112.996 29.2348 112.42 29.0455C111.852 28.8561 111.235 28.7614 110.568 28.7614C109.364 28.7614 108.314 29.0606 107.42 29.6591C106.527 30.25 105.833 31.1136 105.341 32.25C104.848 33.3788 104.602 34.75 104.602 36.3636C104.602 38.0227 104.848 39.4167 105.341 40.5455C105.841 41.6742 106.538 42.5265 107.432 43.1023C108.326 43.678 109.36 43.9659 110.534 43.9659C111.193 43.9659 111.803 43.8788 112.364 43.7045C112.932 43.5303 113.436 43.2765 113.875 42.9432C114.314 42.6023 114.678 42.1894 114.966 41.7045C115.261 41.2197 115.466 40.6667 115.58 40.0455L120.557 40.0682C120.428 41.1364 120.106 42.1667 119.591 43.1591C119.083 44.1439 118.398 45.0265 117.534 45.8068C116.678 46.5795 115.655 47.1932 114.466 47.6477C113.284 48.0947 111.947 48.3182 110.455 48.3182C108.379 48.3182 106.523 47.8485 104.886 46.9091C103.258 45.9697 101.97 44.6098 101.023 42.8295C100.083 41.0492 99.6136 38.8939 99.6136 36.3636C99.6136 33.8258 100.091 31.6667 101.045 29.8864C102 28.1061 103.295 26.75 104.932 25.8182C106.568 24.8788 108.409 24.4091 110.455 24.4091C111.803 24.4091 113.053 24.5985 114.205 24.9773C115.364 25.3561 116.39 25.9091 117.284 26.6364C118.178 27.3561 118.905 28.2386 119.466 29.2841C120.034 30.3295 120.398 31.5265 120.557 32.875ZM131.881 48.3409C130.116 48.3409 128.589 47.9659 127.301 47.2159C126.021 46.4583 125.032 45.4053 124.335 44.0568C123.638 42.7008 123.29 41.1288 123.29 39.3409C123.29 37.5379 123.638 35.9621 124.335 34.6136C125.032 33.2576 126.021 32.2045 127.301 31.4545C128.589 30.697 130.116 30.3182 131.881 30.3182C133.646 30.3182 135.169 30.697 136.449 31.4545C137.737 32.2045 138.729 33.2576 139.426 34.6136C140.123 35.9621 140.472 37.5379 140.472 39.3409C140.472 41.1288 140.123 42.7008 139.426 44.0568C138.729 45.4053 137.737 46.4583 136.449 47.2159C135.169 47.9659 133.646 48.3409 131.881 48.3409ZM131.903 44.5909C132.706 44.5909 133.377 44.3636 133.915 43.9091C134.453 43.447 134.858 42.8182 135.131 42.0227C135.411 41.2273 135.551 40.322 135.551 39.3068C135.551 38.2917 135.411 37.3864 135.131 36.5909C134.858 35.7955 134.453 35.1667 133.915 34.7045C133.377 34.2424 132.706 34.0114 131.903 34.0114C131.093 34.0114 130.411 34.2424 129.858 34.7045C129.313 35.1667 128.9 35.7955 128.619 36.5909C128.347 37.3864 128.21 38.2917 128.21 39.3068C128.21 40.322 128.347 41.2273 128.619 42.0227C128.9 42.8182 129.313 43.447 129.858 43.9091C130.411 44.3636 131.093 44.5909 131.903 44.5909Z" fill="#DE4D4D"/>
<path d="M146.381 37.0909V48H144.358V30.5455H146.324V33.2841H146.506C146.915 32.3902 147.551 31.6742 148.415 31.1364C149.286 30.5909 150.362 30.3182 151.642 30.3182C152.816 30.3182 153.847 30.5644 154.733 31.0568C155.627 31.5417 156.32 32.2576 156.812 33.2045C157.312 34.1515 157.562 35.3144 157.562 36.6932V48H155.54V36.8182C155.54 35.3864 155.138 34.2538 154.335 33.4205C153.54 32.5871 152.472 32.1705 151.131 32.1705C150.214 32.1705 149.4 32.3674 148.688 32.7614C147.975 33.1553 147.411 33.7235 146.994 34.4659C146.585 35.2008 146.381 36.0758 146.381 37.0909ZM164.912 37.0909V48H162.889V30.5455H164.855V33.2841H165.037C165.446 32.3902 166.082 31.6742 166.946 31.1364C167.817 30.5909 168.893 30.3182 170.173 30.3182C171.348 30.3182 172.378 30.5644 173.264 31.0568C174.158 31.5417 174.851 32.2576 175.344 33.2045C175.844 34.1515 176.094 35.3144 176.094 36.6932V48H174.071V36.8182C174.071 35.3864 173.67 34.2538 172.866 33.4205C172.071 32.5871 171.003 32.1705 169.662 32.1705C168.745 32.1705 167.931 32.3674 167.219 32.7614C166.507 33.1553 165.942 33.7235 165.526 34.4659C165.116 35.2008 164.912 36.0758 164.912 37.0909ZM188.477 48.3636C186.848 48.3636 185.439 47.9848 184.25 47.2273C183.061 46.4621 182.14 45.4053 181.489 44.0568C180.845 42.7008 180.523 41.1402 180.523 39.375C180.523 37.6174 180.845 36.0568 181.489 34.6932C182.14 33.322 183.038 32.25 184.182 31.4773C185.333 30.697 186.663 30.3068 188.17 30.3068C189.117 30.3068 190.03 30.4811 190.909 30.8295C191.788 31.1705 192.576 31.697 193.273 32.4091C193.977 33.1136 194.534 34.0038 194.943 35.0795C195.352 36.1477 195.557 37.4129 195.557 38.875V39.875H181.92V38.0909H193.489C193.489 36.9697 193.261 35.9621 192.807 35.0682C192.36 34.1667 191.735 33.4545 190.932 32.9318C190.136 32.4091 189.216 32.1477 188.17 32.1477C187.064 32.1477 186.091 32.4432 185.25 33.0341C184.409 33.625 183.75 34.4053 183.273 35.375C182.803 36.3447 182.564 37.4053 182.557 38.5568V39.625C182.557 41.0114 182.795 42.2235 183.273 43.2614C183.758 44.2917 184.443 45.0909 185.33 45.6591C186.216 46.2273 187.265 46.5114 188.477 46.5114C189.303 46.5114 190.027 46.3826 190.648 46.125C191.277 45.8674 191.803 45.5227 192.227 45.0909C192.659 44.6515 192.985 44.1705 193.205 43.6477L195.125 44.2727C194.86 45.0076 194.424 45.6856 193.818 46.3068C193.22 46.928 192.47 47.428 191.568 47.8068C190.674 48.178 189.644 48.3636 188.477 48.3636ZM206.832 48.3636C205.272 48.3636 203.912 47.9735 202.753 47.1932C201.601 46.4129 200.707 45.3447 200.071 43.9886C199.435 42.6326 199.116 41.0871 199.116 39.3523C199.116 37.6023 199.438 36.0455 200.082 34.6818C200.734 33.3182 201.635 32.25 202.787 31.4773C203.938 30.697 205.276 30.3068 206.798 30.3068C207.965 30.3068 209.022 30.5341 209.969 30.9886C210.916 31.4356 211.696 32.0682 212.31 32.8864C212.931 33.697 213.321 34.6439 213.48 35.7273H211.435C211.223 34.7424 210.711 33.9015 209.901 33.2045C209.098 32.5 208.075 32.1477 206.832 32.1477C205.719 32.1477 204.734 32.4508 203.878 33.0568C203.022 33.6553 202.351 34.4924 201.866 35.5682C201.389 36.6364 201.151 37.875 201.151 39.2841C201.151 40.7008 201.385 41.9545 201.855 43.0455C202.325 44.1288 202.984 44.9773 203.832 45.5909C204.688 46.2045 205.688 46.5114 206.832 46.5114C207.605 46.5114 208.31 46.3674 208.946 46.0795C209.59 45.7841 210.128 45.3674 210.56 44.8295C210.999 44.2917 211.295 43.6515 211.446 42.9091H213.491C213.34 43.9621 212.965 44.9015 212.366 45.7273C211.776 46.5455 211.007 47.1894 210.06 47.6591C209.12 48.1288 208.045 48.3636 206.832 48.3636ZM224.702 30.5455V32.3068H216.372V30.5455H224.702ZM218.974 26.3636H221.009V43.4432C221.009 44.1705 221.134 44.7424 221.384 45.1591C221.634 45.5682 221.959 45.8598 222.361 46.0341C222.762 46.2008 223.19 46.2841 223.645 46.2841C223.91 46.2841 224.137 46.2689 224.327 46.2386C224.516 46.2008 224.683 46.1629 224.827 46.125L225.259 47.9545C225.062 48.0303 224.819 48.0985 224.531 48.1591C224.243 48.2273 223.887 48.2614 223.463 48.2614C222.721 48.2614 222.005 48.0985 221.315 47.7727C220.634 47.447 220.073 46.9621 219.634 46.3182C219.194 45.6742 218.974 44.875 218.974 43.9205V26.3636Z" fill="white"/>
<path d="M280.25 30.8409C280.129 29.7652 279.629 28.9318 278.75 28.3409C277.871 27.7424 276.765 27.4432 275.432 27.4432C274.477 27.4432 273.652 27.5947 272.955 27.8977C272.258 28.1932 271.716 28.6023 271.33 29.125C270.951 29.6402 270.761 30.2273 270.761 30.8864C270.761 31.4394 270.89 31.9167 271.148 32.3182C271.413 32.7197 271.758 33.0568 272.182 33.3295C272.614 33.5947 273.076 33.8182 273.568 34C274.061 34.1742 274.534 34.3182 274.989 34.4318L277.261 35.0227C278.004 35.2045 278.765 35.4508 279.545 35.7614C280.326 36.072 281.049 36.4811 281.716 36.9886C282.383 37.4962 282.92 38.125 283.33 38.875C283.746 39.625 283.955 40.5227 283.955 41.5682C283.955 42.8864 283.614 44.0568 282.932 45.0795C282.258 46.1023 281.277 46.9091 279.989 47.5C278.708 48.0909 277.159 48.3864 275.341 48.3864C273.598 48.3864 272.091 48.1098 270.818 47.5568C269.545 47.0038 268.549 46.2197 267.83 45.2045C267.11 44.1818 266.712 42.9697 266.636 41.5682H270.159C270.227 42.4091 270.5 43.1098 270.977 43.6705C271.462 44.2235 272.08 44.6364 272.83 44.9091C273.587 45.1742 274.417 45.3068 275.318 45.3068C276.311 45.3068 277.193 45.1515 277.966 44.8409C278.746 44.5227 279.36 44.0833 279.807 43.5227C280.254 42.9545 280.477 42.2917 280.477 41.5341C280.477 40.8447 280.28 40.2803 279.886 39.8409C279.5 39.4015 278.973 39.0379 278.307 38.75C277.648 38.4621 276.902 38.2083 276.068 37.9886L273.318 37.2386C271.455 36.7311 269.977 35.9848 268.886 35C267.803 34.0152 267.261 32.7121 267.261 31.0909C267.261 29.75 267.625 28.5795 268.352 27.5795C269.08 26.5795 270.064 25.803 271.307 25.25C272.549 24.6894 273.951 24.4091 275.511 24.4091C277.087 24.4091 278.477 24.6856 279.682 25.2386C280.894 25.7917 281.848 26.553 282.545 27.5227C283.242 28.4848 283.606 29.5909 283.636 30.8409H280.25ZM287.878 48V30.5455H291.276V48H287.878ZM289.594 27.8523C289.003 27.8523 288.495 27.6553 288.071 27.2614C287.654 26.8598 287.446 26.3826 287.446 25.8295C287.446 25.2689 287.654 24.7917 288.071 24.3977C288.495 23.9962 289.003 23.7955 289.594 23.7955C290.185 23.7955 290.688 23.9962 291.105 24.3977C291.529 24.7917 291.741 25.2689 291.741 25.8295C291.741 26.3826 291.529 26.8598 291.105 27.2614C290.688 27.6553 290.185 27.8523 289.594 27.8523ZM303.165 54.9091C301.778 54.9091 300.585 54.7273 299.585 54.3636C298.593 54 297.782 53.5189 297.153 52.9205C296.525 52.322 296.055 51.6667 295.744 50.9545L298.665 49.75C298.869 50.0833 299.142 50.4356 299.483 50.8068C299.831 51.1856 300.301 51.5076 300.892 51.7727C301.491 52.0379 302.259 52.1705 303.199 52.1705C304.487 52.1705 305.551 51.8561 306.392 51.2273C307.233 50.6061 307.653 49.6136 307.653 48.25V44.8182H307.438C307.233 45.1894 306.938 45.6023 306.551 46.0568C306.172 46.5114 305.65 46.9053 304.983 47.2386C304.316 47.572 303.449 47.7386 302.381 47.7386C301.002 47.7386 299.759 47.4167 298.653 46.7727C297.555 46.1212 296.684 45.1629 296.04 43.8977C295.403 42.625 295.085 41.0606 295.085 39.2045C295.085 37.3485 295.4 35.7576 296.028 34.4318C296.665 33.1061 297.536 32.0909 298.642 31.3864C299.748 30.6742 301.002 30.3182 302.403 30.3182C303.487 30.3182 304.362 30.5 305.028 30.8636C305.695 31.2197 306.214 31.6364 306.585 32.1136C306.964 32.5909 307.256 33.0114 307.46 33.375H307.71V30.5455H311.04V48.3864C311.04 49.8864 310.691 51.1174 309.994 52.0795C309.297 53.0417 308.354 53.7538 307.165 54.2159C305.983 54.678 304.65 54.9091 303.165 54.9091ZM303.131 44.9205C304.108 44.9205 304.934 44.6932 305.608 44.2386C306.29 43.7765 306.805 43.1174 307.153 42.2614C307.509 41.3977 307.688 40.3636 307.688 39.1591C307.688 37.9848 307.513 36.9508 307.165 36.0568C306.816 35.1629 306.305 34.4659 305.631 33.9659C304.956 33.4583 304.123 33.2045 303.131 33.2045C302.108 33.2045 301.256 33.4697 300.574 34C299.892 34.5227 299.377 35.2348 299.028 36.1364C298.688 37.0379 298.517 38.0455 298.517 39.1591C298.517 40.303 298.691 41.3068 299.04 42.1705C299.388 43.0341 299.903 43.7083 300.585 44.1932C301.275 44.678 302.123 44.9205 303.131 44.9205ZM318.994 37.6364V48H315.597V30.5455H318.858V33.3864H319.074C319.475 32.4621 320.104 31.7197 320.96 31.1591C321.824 30.5985 322.911 30.3182 324.222 30.3182C325.411 30.3182 326.453 30.5682 327.347 31.0682C328.241 31.5606 328.934 32.2955 329.426 33.2727C329.919 34.25 330.165 35.4583 330.165 36.8977V48H326.767V37.3068C326.767 36.0417 326.438 35.053 325.778 34.3409C325.119 33.6212 324.214 33.2614 323.062 33.2614C322.275 33.2614 321.574 33.4318 320.96 33.7727C320.354 34.1136 319.873 34.6136 319.517 35.2727C319.169 35.9242 318.994 36.7121 318.994 37.6364ZM343.19 48V30.5455H346.588V48H343.19ZM344.906 27.8523C344.315 27.8523 343.808 27.6553 343.384 27.2614C342.967 26.8598 342.759 26.3826 342.759 25.8295C342.759 25.2689 342.967 24.7917 343.384 24.3977C343.808 23.9962 344.315 23.7955 344.906 23.7955C345.497 23.7955 346.001 23.9962 346.418 24.3977C346.842 24.7917 347.054 25.2689 347.054 25.8295C347.054 26.3826 346.842 26.8598 346.418 27.2614C346.001 27.6553 345.497 27.8523 344.906 27.8523ZM354.557 37.6364V48H351.159V30.5455H354.42V33.3864H354.636C355.038 32.4621 355.667 31.7197 356.523 31.1591C357.386 30.5985 358.473 30.3182 359.784 30.3182C360.973 30.3182 362.015 30.5682 362.909 31.0682C363.803 31.5606 364.496 32.2955 364.989 33.2727C365.481 34.25 365.727 35.4583 365.727 36.8977V48H362.33V37.3068C362.33 36.0417 362 35.053 361.341 34.3409C360.682 33.6212 359.777 33.2614 358.625 33.2614C357.837 33.2614 357.136 33.4318 356.523 33.7727C355.917 34.1136 355.436 34.6136 355.08 35.2727C354.731 35.9242 354.557 36.7121 354.557 37.6364Z" fill="white"/>
</svg>
