<svg width="213" height="49" viewBox="0 0 213 49" fill="none" xmlns="http://www.w3.org/2000/svg">
<path d="M1.13636 11.7841V7.72727H20.25V11.7841H13.125V31H8.26136V11.7841H1.13636ZM21.4943 31V13.5455H26.1875V16.5909H26.3693C26.6875 15.5076 27.2216 14.6894 27.9716 14.1364C28.7216 13.5758 29.5852 13.2955 30.5625 13.2955C30.8049 13.2955 31.0663 13.3106 31.3466 13.3409C31.6269 13.3712 31.8731 13.4129 32.0852 13.4659V17.7614C31.858 17.6932 31.5436 17.6326 31.142 17.5795C30.7405 17.5265 30.3731 17.5 30.0398 17.5C29.3277 17.5 28.6913 17.6553 28.1307 17.9659C27.5777 18.2689 27.1383 18.6932 26.8125 19.2386C26.4943 19.7841 26.3352 20.4129 26.3352 21.125V31H21.4943ZM45.7812 23.5682V13.5455H50.6222V31H45.9744V27.8295H45.7926C45.3987 28.8523 44.7434 29.6742 43.8267 30.2955C42.9176 30.9167 41.8078 31.2273 40.4972 31.2273C39.3305 31.2273 38.304 30.9621 37.4176 30.4318C36.5313 29.9015 35.8381 29.1477 35.3381 28.1705C34.8456 27.1932 34.5956 26.0227 34.5881 24.6591V13.5455H39.429V23.7955C39.4366 24.8258 39.7131 25.6402 40.2585 26.2386C40.804 26.8371 41.535 27.1364 42.4517 27.1364C43.035 27.1364 43.5805 27.0038 44.0881 26.7386C44.5956 26.4659 45.0047 26.0644 45.3153 25.5341C45.6335 25.0038 45.7888 24.3485 45.7812 23.5682ZM69.017 18.5227L64.5852 18.7955C64.5095 18.4167 64.3466 18.0758 64.0966 17.7727C63.8466 17.4621 63.517 17.2159 63.108 17.0341C62.7064 16.8447 62.2254 16.75 61.6648 16.75C60.9148 16.75 60.2822 16.9091 59.767 17.2273C59.2519 17.5379 58.9943 17.9545 58.9943 18.4773C58.9943 18.8939 59.161 19.2462 59.4943 19.5341C59.8277 19.822 60.3996 20.053 61.2102 20.2273L64.3693 20.8636C66.0663 21.2121 67.3314 21.7727 68.1648 22.5455C68.9981 23.3182 69.4148 24.3333 69.4148 25.5909C69.4148 26.7348 69.0777 27.7386 68.4034 28.6023C67.7367 29.4659 66.8201 30.1402 65.6534 30.625C64.4943 31.1023 63.1572 31.3409 61.642 31.3409C59.3314 31.3409 57.4905 30.8598 56.1193 29.8977C54.7557 28.928 53.9564 27.6098 53.7216 25.9432L58.483 25.6932C58.6269 26.3977 58.9754 26.9356 59.5284 27.3068C60.0814 27.6705 60.7898 27.8523 61.6534 27.8523C62.5019 27.8523 63.1837 27.6894 63.6989 27.3636C64.2216 27.0303 64.4867 26.6023 64.4943 26.0795C64.4867 25.6402 64.3011 25.2803 63.9375 25C63.5739 24.7121 63.0133 24.4924 62.2557 24.3409L59.233 23.7386C57.5284 23.3977 56.2595 22.8068 55.4261 21.9659C54.6004 21.125 54.1875 20.053 54.1875 18.75C54.1875 17.6288 54.4905 16.6629 55.0966 15.8523C55.7102 15.0417 56.5701 14.4167 57.6761 13.9773C58.7898 13.5379 60.0928 13.3182 61.5852 13.3182C63.7898 13.3182 65.5246 13.7841 66.7898 14.7159C68.0625 15.6477 68.8049 16.9167 69.017 18.5227ZM81.7472 13.5455V17.1818H71.2358V13.5455H81.7472ZM73.6222 9.36364H78.4631V25.6364C78.4631 26.0833 78.5313 26.4318 78.6676 26.6818C78.804 26.9242 78.9934 27.0947 79.2358 27.1932C79.4858 27.2917 79.7737 27.3409 80.0994 27.3409C80.3267 27.3409 80.554 27.322 80.7812 27.2841C81.0085 27.2386 81.1828 27.2045 81.304 27.1818L82.0653 30.7841C81.8229 30.8598 81.482 30.947 81.0426 31.0455C80.6032 31.1515 80.0691 31.2159 79.4403 31.2386C78.2737 31.2841 77.2509 31.1288 76.3722 30.7727C75.5009 30.4167 74.8229 29.8636 74.3381 29.1136C73.8532 28.3636 73.6146 27.4167 73.6222 26.2727V9.36364Z" fill="#DE4D4D"/>
<path d="M105.557 15.875H100.58C100.489 15.2311 100.303 14.6591 100.023 14.1591C99.7424 13.6515 99.3826 13.2197 98.9432 12.8636C98.5038 12.5076 97.9962 12.2348 97.4205 12.0455C96.8523 11.8561 96.2348 11.7614 95.5682 11.7614C94.3636 11.7614 93.3144 12.0606 92.4205 12.6591C91.5265 13.25 90.8333 14.1136 90.3409 15.25C89.8485 16.3788 89.6023 17.75 89.6023 19.3636C89.6023 21.0227 89.8485 22.4167 90.3409 23.5455C90.8409 24.6742 91.5379 25.5265 92.4318 26.1023C93.3258 26.678 94.3598 26.9659 95.5341 26.9659C96.1932 26.9659 96.803 26.8788 97.3636 26.7045C97.9318 26.5303 98.4356 26.2765 98.875 25.9432C99.3144 25.6023 99.678 25.1894 99.9659 24.7045C100.261 24.2197 100.466 23.6667 100.58 23.0455L105.557 23.0682C105.428 24.1364 105.106 25.1667 104.591 26.1591C104.083 27.1439 103.398 28.0265 102.534 28.8068C101.678 29.5795 100.655 30.1932 99.4659 30.6477C98.2841 31.0947 96.947 31.3182 95.4545 31.3182C93.3788 31.3182 91.5227 30.8485 89.8864 29.9091C88.2576 28.9697 86.9697 27.6098 86.0227 25.8295C85.0833 24.0492 84.6136 21.8939 84.6136 19.3636C84.6136 16.8258 85.0909 14.6667 86.0455 12.8864C87 11.1061 88.2955 9.75 89.9318 8.81818C91.5682 7.87879 93.4091 7.40909 95.4545 7.40909C96.803 7.40909 98.053 7.59848 99.2045 7.97727C100.364 8.35606 101.39 8.90909 102.284 9.63636C103.178 10.3561 103.905 11.2386 104.466 12.2841C105.034 13.3295 105.398 14.5265 105.557 15.875ZM116.881 31.3409C115.116 31.3409 113.589 30.9659 112.301 30.2159C111.021 29.4583 110.032 28.4053 109.335 27.0568C108.638 25.7008 108.29 24.1288 108.29 22.3409C108.29 20.5379 108.638 18.9621 109.335 17.6136C110.032 16.2576 111.021 15.2045 112.301 14.4545C113.589 13.697 115.116 13.3182 116.881 13.3182C118.646 13.3182 120.169 13.697 121.449 14.4545C122.737 15.2045 123.729 16.2576 124.426 17.6136C125.123 18.9621 125.472 20.5379 125.472 22.3409C125.472 24.1288 125.123 25.7008 124.426 27.0568C123.729 28.4053 122.737 29.4583 121.449 30.2159C120.169 30.9659 118.646 31.3409 116.881 31.3409ZM116.903 27.5909C117.706 27.5909 118.377 27.3636 118.915 26.9091C119.453 26.447 119.858 25.8182 120.131 25.0227C120.411 24.2273 120.551 23.322 120.551 22.3068C120.551 21.2917 120.411 20.3864 120.131 19.5909C119.858 18.7955 119.453 18.1667 118.915 17.7045C118.377 17.2424 117.706 17.0114 116.903 17.0114C116.093 17.0114 115.411 17.2424 114.858 17.7045C114.313 18.1667 113.9 18.7955 113.619 19.5909C113.347 20.3864 113.21 21.2917 113.21 22.3068C113.21 23.322 113.347 24.2273 113.619 25.0227C113.9 25.8182 114.313 26.447 114.858 26.9091C115.411 27.3636 116.093 27.5909 116.903 27.5909Z" fill="#DE4D4D"/>
<path d="M131.381 20.0909V31H129.358V13.5455H131.324V16.2841H131.506C131.915 15.3902 132.551 14.6742 133.415 14.1364C134.286 13.5909 135.362 13.3182 136.642 13.3182C137.816 13.3182 138.847 13.5644 139.733 14.0568C140.627 14.5417 141.32 15.2576 141.812 16.2045C142.312 17.1515 142.562 18.3144 142.562 19.6932V31H140.54V19.8182C140.54 18.3864 140.138 17.2538 139.335 16.4205C138.54 15.5871 137.472 15.1705 136.131 15.1705C135.214 15.1705 134.4 15.3674 133.688 15.7614C132.975 16.1553 132.411 16.7235 131.994 17.4659C131.585 18.2008 131.381 19.0758 131.381 20.0909ZM149.912 20.0909V31H147.889V13.5455H149.855V16.2841H150.037C150.446 15.3902 151.082 14.6742 151.946 14.1364C152.817 13.5909 153.893 13.3182 155.173 13.3182C156.348 13.3182 157.378 13.5644 158.264 14.0568C159.158 14.5417 159.851 15.2576 160.344 16.2045C160.844 17.1515 161.094 18.3144 161.094 19.6932V31H159.071V19.8182C159.071 18.3864 158.67 17.2538 157.866 16.4205C157.071 15.5871 156.003 15.1705 154.662 15.1705C153.745 15.1705 152.931 15.3674 152.219 15.7614C151.507 16.1553 150.942 16.7235 150.526 17.4659C150.116 18.2008 149.912 19.0758 149.912 20.0909ZM173.477 31.3636C171.848 31.3636 170.439 30.9848 169.25 30.2273C168.061 29.4621 167.14 28.4053 166.489 27.0568C165.845 25.7008 165.523 24.1402 165.523 22.375C165.523 20.6174 165.845 19.0568 166.489 17.6932C167.14 16.322 168.038 15.25 169.182 14.4773C170.333 13.697 171.663 13.3068 173.17 13.3068C174.117 13.3068 175.03 13.4811 175.909 13.8295C176.788 14.1705 177.576 14.697 178.273 15.4091C178.977 16.1136 179.534 17.0038 179.943 18.0795C180.352 19.1477 180.557 20.4129 180.557 21.875V22.875H166.92V21.0909H178.489C178.489 19.9697 178.261 18.9621 177.807 18.0682C177.36 17.1667 176.735 16.4545 175.932 15.9318C175.136 15.4091 174.216 15.1477 173.17 15.1477C172.064 15.1477 171.091 15.4432 170.25 16.0341C169.409 16.625 168.75 17.4053 168.273 18.375C167.803 19.3447 167.564 20.4053 167.557 21.5568V22.625C167.557 24.0114 167.795 25.2235 168.273 26.2614C168.758 27.2917 169.443 28.0909 170.33 28.6591C171.216 29.2273 172.265 29.5114 173.477 29.5114C174.303 29.5114 175.027 29.3826 175.648 29.125C176.277 28.8674 176.803 28.5227 177.227 28.0909C177.659 27.6515 177.985 27.1705 178.205 26.6477L180.125 27.2727C179.86 28.0076 179.424 28.6856 178.818 29.3068C178.22 29.928 177.47 30.428 176.568 30.8068C175.674 31.178 174.644 31.3636 173.477 31.3636ZM191.832 31.3636C190.272 31.3636 188.912 30.9735 187.753 30.1932C186.601 29.4129 185.707 28.3447 185.071 26.9886C184.435 25.6326 184.116 24.0871 184.116 22.3523C184.116 20.6023 184.438 19.0455 185.082 17.6818C185.734 16.3182 186.635 15.25 187.787 14.4773C188.938 13.697 190.276 13.3068 191.798 13.3068C192.965 13.3068 194.022 13.5341 194.969 13.9886C195.916 14.4356 196.696 15.0682 197.31 15.8864C197.931 16.697 198.321 17.6439 198.48 18.7273H196.435C196.223 17.7424 195.711 16.9015 194.901 16.2045C194.098 15.5 193.075 15.1477 191.832 15.1477C190.719 15.1477 189.734 15.4508 188.878 16.0568C188.022 16.6553 187.351 17.4924 186.866 18.5682C186.389 19.6364 186.151 20.875 186.151 22.2841C186.151 23.7008 186.385 24.9545 186.855 26.0455C187.325 27.1288 187.984 27.9773 188.832 28.5909C189.688 29.2045 190.688 29.5114 191.832 29.5114C192.605 29.5114 193.31 29.3674 193.946 29.0795C194.59 28.7841 195.128 28.3674 195.56 27.8295C195.999 27.2917 196.295 26.6515 196.446 25.9091H198.491C198.34 26.9621 197.965 27.9015 197.366 28.7273C196.776 29.5455 196.007 30.1894 195.06 30.6591C194.12 31.1288 193.045 31.3636 191.832 31.3636ZM209.702 13.5455V15.3068H201.372V13.5455H209.702ZM203.974 9.36364H206.009V26.4432C206.009 27.1705 206.134 27.7424 206.384 28.1591C206.634 28.5682 206.959 28.8598 207.361 29.0341C207.762 29.2008 208.19 29.2841 208.645 29.2841C208.91 29.2841 209.137 29.2689 209.327 29.2386C209.516 29.2008 209.683 29.1629 209.827 29.125L210.259 30.9545C210.062 31.0303 209.819 31.0985 209.531 31.1591C209.243 31.2273 208.887 31.2614 208.463 31.2614C207.721 31.2614 207.005 31.0985 206.315 30.7727C205.634 30.447 205.073 29.9621 204.634 29.3182C204.194 28.6742 203.974 27.875 203.974 26.9205V9.36364Z" fill="white"/>
</svg>
